# xmcd CD database file
#
# Track frame offsets:
#	150
#	15204
#	27285
#	42556
#	56014
#	70040
#	84096
#	95942
#	109336
#	123417
#	137679
#	157064
#
# Disc length: 2306 seconds
#
# Revision: 0
# Processed by: cddbd v1.5.1PL2 Copyright (c) Steve Scherf et al.
# Submitted via: CDex 1.70beta1
#
DISCID=9d09000c
DTITLE=Various Artist - Roots of The Blues Vol.4
DYEAR=2001
DGENRE=Blues
TTITLE0=Albert Hunter - Beale Street Blues
TTITLE1=Louis Armstrong - Blues For Yesterday
TTITLE2=Dinah Washington - Blow Top Blues
TTITLE3=Peetie Wheetstraw - These Times
TTITLE4=Wyonnie Harris - Hurry, Hurry
TTITLE5=Mildred Bailey - That Ain't Right
TTITLE6=Brownie McGhee - Million Lonesome Woman
TTITLE7=Sippie Wallace - You Gonna Need My Help
TTITLE8=Sonny Boy Williamson - Coal And Iceman Blues
TTITLE9=Victoria Spivey - Moaning The Blues
TTITLE10=Jimmie Rushing - Harvard Blues
TTITLE11=Metronome All-Star Band - The Blues (Traditional)
EXTD=YEAR: 2001
EXTT0=
EXTT1=
EXTT2=
EXTT3=
EXTT4=
EXTT5=
EXTT6=
EXTT7=
EXTT8=
EXTT9=
EXTT10=
EXTT11=
PLAYORDER=
